<?xml version="1.0" encoding="UTF-8"?>
<svg xmlns="http://www.w3.org/2000/svg" viewBox="0 0 200 200" role="img" aria-label="Maestro Alebrije">
  <defs>
    <radialGradient id="m-aura" cx="50%" cy="42%" r="52%">
      <stop offset="0%" stop-color="#f472b6" stop-opacity="0.35"/>
      <stop offset="55%" stop-color="#a855f7" stop-opacity="0.18"/>
      <stop offset="100%" stop-color="#38bdf8" stop-opacity="0"/>
    </radialGradient>
    <linearGradient id="m-horn" x1="0%" y1="0%" x2="0%" y2="100%">
      <stop offset="0%" stop-color="#fde68a"/>
      <stop offset="45%" stop-color="#f97316"/>
      <stop offset="100%" stop-color="#c2410c"/>
    </linearGradient>
    <linearGradient id="m-wing-l" x1="0%" y1="0%" x2="100%" y2="100%">
      <stop offset="0%" stop-color="#67e8f9"/>
      <stop offset="100%" stop-color="#2563eb"/>
    </linearGradient>
    <linearGradient id="m-wing-r" x1="100%" y1="0%" x2="0%" y2="100%">
      <stop offset="0%" stop-color="#6ee7b7"/>
      <stop offset="100%" stop-color="#059669"/>
    </linearGradient>
    <linearGradient id="m-body" x1="0%" y1="0%" x2="100%" y2="100%">
      <stop offset="0%" stop-color="#c026d3"/>
      <stop offset="100%" stop-color="#7c3aed"/>
    </linearGradient>
    <linearGradient id="m-head" x1="30%" y1="0%" x2="70%" y2="100%">
      <stop offset="0%" stop-color="#fb7185"/>
      <stop offset="100%" stop-color="#db2777"/>
    </linearGradient>
    <linearGradient id="m-book" x1="0%" y1="0%" x2="100%" y2="100%">
      <stop offset="0%" stop-color="#fef9c3"/>
      <stop offset="100%" stop-color="#fde047"/>
    </linearGradient>
  </defs>

  <circle cx="100" cy="100" r="94" fill="url(#m-aura)"/>
  <circle cx="100" cy="100" r="88" fill="none" stroke="#f472b6" stroke-width="1.5" opacity="0.25"/>

  <path d="M42 118 Q8 88 6 52 Q28 98 54 128 Z" fill="url(#m-wing-l)" stroke="#0e7490" stroke-width="2"/>
  <path d="M42 118 Q24 108 18 88 Q32 112 48 124 Z" fill="#a5f3fc" opacity="0.55"/>
  <path d="M158 118 Q192 88 194 52 Q172 98 146 128 Z" fill="url(#m-wing-r)" stroke="#047857" stroke-width="2"/>
  <path d="M158 118 Q176 108 182 88 Q168 112 152 124 Z" fill="#bbf7d0" opacity="0.55"/>

  <path d="M152 148 Q188 158 196 124 Q176 152 158 162 Z" fill="#fbbf24" stroke="#d97706" stroke-width="2"/>
  <path d="M160 152 Q178 156 184 138" fill="none" stroke="#fef3c7" stroke-width="2" stroke-linecap="round"/>

  <ellipse cx="100" cy="124" rx="54" ry="46" fill="url(#m-body)" stroke="#581c87" stroke-width="2"/>
  <circle cx="78" cy="118" r="5" fill="#fde047" opacity="0.9"/>
  <circle cx="92" cy="132" r="4" fill="#38bdf8" opacity="0.85"/>
  <circle cx="108" cy="126" r="5" fill="#f472b6" opacity="0.9"/>
  <circle cx="122" cy="138" r="4" fill="#fde047" opacity="0.85"/>
  <path d="M68 108 Q100 98 132 108" fill="none" stroke="#e879f9" stroke-width="2.5" stroke-linecap="round" opacity="0.6"/>

  <ellipse cx="100" cy="74" rx="40" ry="38" fill="url(#m-head)" stroke="#9d174d" stroke-width="2"/>
  <path d="M62 62 Q58 48 64 38 Q72 52 68 66 Z" fill="#fda4af" stroke="#be185d" stroke-width="1.5"/>
  <path d="M138 62 Q142 48 136 38 Q128 52 132 66 Z" fill="#fda4af" stroke="#be185d" stroke-width="1.5"/>

  <path d="M68 44 Q54 12 38 4 L58 40 Z" fill="url(#m-horn)" stroke="#9a3412" stroke-width="1.5"/>
  <path d="M132 44 Q146 12 162 4 L142 40 Z" fill="url(#m-horn)" stroke="#9a3412" stroke-width="1.5"/>
  <path d="M72 36 L78 22 L84 36" fill="#fef08a" stroke="#ca8a04" stroke-width="1"/>
  <path d="M116 36 L122 22 L128 36" fill="#fef08a" stroke="#ca8a04" stroke-width="1"/>

  <path d="M88 34 Q100 24 112 34 L108 42 Q100 36 92 42 Z" fill="#22d3ee" stroke="#0891b2" stroke-width="1.2"/>
  <circle cx="94" cy="36" r="2.5" fill="#fef08a"/>
  <circle cx="106" cy="36" r="2.5" fill="#f472b6"/>

  <ellipse cx="82" cy="72" rx="13" ry="14" fill="#fff"/>
  <ellipse cx="118" cy="72" rx="13" ry="14" fill="#fff"/>
  <circle cx="84" cy="74" r="7" fill="#1e1b4b"/>
  <circle cx="120" cy="74" r="7" fill="#1e1b4b"/>
  <circle cx="86" cy="72" r="2.5" fill="#fff"/>
  <circle cx="122" cy="72" r="2.5" fill="#fff"/>
  <circle cx="88" cy="76" r="1.2" fill="#38bdf8" opacity="0.8"/>
  <circle cx="124" cy="76" r="1.2" fill="#38bdf8" opacity="0.8"/>

  <ellipse cx="82" cy="72" rx="17" ry="18" fill="none" stroke="#fef08a" stroke-width="3"/>
  <ellipse cx="118" cy="72" rx="17" ry="18" fill="none" stroke="#fef08a" stroke-width="3"/>
  <path d="M99 74h2" stroke="#fef08a" stroke-width="2.5" stroke-linecap="round"/>

  <path d="M78 92 Q100 108 122 92 Q118 98 100 100 Q82 98 78 92 Z" fill="#831843"/>
  <path d="M86 94 Q100 102 114 94" fill="none" stroke="#fff" stroke-width="2" stroke-linecap="round" opacity="0.45"/>

  <rect x="78" y="132" width="44" height="30" rx="4" fill="url(#m-book)" stroke="#ca8a04" stroke-width="2.5"/>
  <path d="M100 132v30" stroke="#d97706" stroke-width="2"/>
  <path d="M84 140h12M84 148h10M84 156h8" stroke="#92400e" stroke-width="1.5" stroke-linecap="round" opacity="0.55"/>
  <path d="M104 140h12M106 148h10M108 156h8" stroke="#92400e" stroke-width="1.5" stroke-linecap="round" opacity="0.55"/>
  <path d="M88 128 Q100 122 112 128" fill="#fef08a" stroke="#eab308" stroke-width="1.5"/>

  <rect x="74" y="158" width="18" height="24" rx="9" fill="#6d28d9" stroke="#4c1d95" stroke-width="1.5"/>
  <rect x="108" y="158" width="18" height="24" rx="9" fill="#6d28d9" stroke="#4c1d95" stroke-width="1.5"/>
  <ellipse cx="83" cy="158" rx="8" ry="4" fill="#a78bfa"/>
  <ellipse cx="117" cy="158" rx="8" ry="4" fill="#a78bfa"/>
</svg>
