<svg xmlns="http://www.w3.org/2000/svg" viewBox="0 0 64 64" fill="none">
  <circle cx="32" cy="32" r="30" fill="#f7df1e"/>
  <path d="M20 18c-5 7-5 21 0 28" stroke="#323330" stroke-width="5" stroke-linecap="round" fill="none"/>
  <path d="M44 18c5 7 5 21 0 28" stroke="#323330" stroke-width="5" stroke-linecap="round" fill="none"/>
  <path d="M29 38c1.5 2.5 4 4 7 4 4.5 0 7.5-2.5 7.5-6.5 0-3.5-2.5-5.5-7-6.5-3-.8-5-2-5-4 0-2.2 2-3.8 5-3.8 2.5 0 4.5 1 5.8 2.5" stroke="#323330" stroke-width="3.5" stroke-linecap="round" fill="none"/>
  <path d="M43 38v10" stroke="#323330" stroke-width="3.5" stroke-linecap="round"/>
</svg>
