<svg xmlns="http://www.w3.org/2000/svg" viewBox="0 0 64 64" fill="none">
  <circle cx="32" cy="32" r="30" fill="#3776ab"/>
  <path d="M38 16h-8c-6 0-10 3-10 8 0 4 2 6 6 7l8 2c4 1 6 3 6 7 0 5-4 8-10 8h-8" stroke="#ffd43b" stroke-width="3.5" stroke-linecap="round" fill="none"/>
  <path d="M26 48h8c6 0 10-3 10-8 0-4-2-6-6-7l-8-2c-4-1-6-3-6-7 0-5 4-8 10-8h8" stroke="#4fc3f7" stroke-width="3.5" stroke-linecap="round" fill="none"/>
  <circle cx="27" cy="21" r="2.5" fill="#ffd43b"/>
  <circle cx="37" cy="43" r="2.5" fill="#4fc3f7"/>
</svg>
