<?xml version="1.0" encoding="UTF-8"?>
<svg xmlns="http://www.w3.org/2000/svg" viewBox="0 0 64 64" role="img" aria-label="Caballero epico">
  <defs>
    <radialGradient id="cab-void" cx="50%" cy="38%" r="58%">
      <stop offset="0%" stop-color="#2a1f3d"/>
      <stop offset="55%" stop-color="#110a18"/>
      <stop offset="100%" stop-color="#050308"/>
    </radialGradient>
    <linearGradient id="cab-plate" x1="0.2" y1="0" x2="0.85" y2="1">
      <stop offset="0%" stop-color="#52525b"/>
      <stop offset="35%" stop-color="#27272a"/>
      <stop offset="100%" stop-color="#09090b"/>
    </linearGradient>
    <linearGradient id="cab-edge" x1="0" y1="0" x2="1" y2="0">
      <stop offset="0%" stop-color="#71717a" stop-opacity="0"/>
      <stop offset="50%" stop-color="#d4d4d8" stop-opacity="0.55"/>
      <stop offset="100%" stop-color="#71717a" stop-opacity="0"/>
    </linearGradient>
    <linearGradient id="cab-cape" x1="0.5" y1="0" x2="0.5" y2="1">
      <stop offset="0%" stop-color="#450a0a"/>
      <stop offset="100%" stop-color="#0c0404"/>
    </linearGradient>
    <linearGradient id="cab-gold" x1="0" y1="0" x2="0" y2="1">
      <stop offset="0%" stop-color="#fde68a"/>
      <stop offset="100%" stop-color="#92400e"/>
    </linearGradient>
    <radialGradient id="cab-ember" cx="50%" cy="50%" r="50%">
      <stop offset="0%" stop-color="#fbbf24" stop-opacity="0.95"/>
      <stop offset="45%" stop-color="#ea580c" stop-opacity="0.55"/>
      <stop offset="100%" stop-color="#7c2d12" stop-opacity="0"/>
    </radialGradient>
    <filter id="cab-soft" x="-20%" y="-20%" width="140%" height="140%">
      <feGaussianBlur stdDeviation="1.2"/>
    </filter>
  </defs>

  <circle cx="32" cy="32" r="30" fill="url(#cab-void)"/>
  <circle cx="32" cy="32" r="29" fill="none" stroke="#78350f" stroke-width="0.8" opacity="0.35"/>
  <circle cx="32" cy="32" r="27.5" fill="none" stroke="#a16207" stroke-width="0.5" opacity="0.2"/>

  <ellipse cx="32" cy="28" rx="18" ry="16" fill="url(#cab-ember)" opacity="0.22" filter="url(#cab-soft)"/>

  <path d="M12 44 Q32 34 52 44 L50 59 Q32 63 14 59 Z" fill="url(#cab-cape)"/>
  <path d="M16 46 Q32 42 48 46" fill="none" stroke="#7f1d1d" stroke-width="0.7" opacity="0.45"/>

  <path d="M8 36 Q4 30 6 24 Q14 28 18 36 Z" fill="#18181b" stroke="#52525b" stroke-width="0.7"/>
  <path d="M56 36 Q60 30 58 24 Q50 28 46 36 Z" fill="#18181b" stroke="#52525b" stroke-width="0.7"/>
  <path d="M6 22 L4 14 L10 20 Z" fill="#27272a" stroke="#71717a" stroke-width="0.5"/>
  <path d="M58 22 L60 14 L54 20 Z" fill="#27272a" stroke="#71717a" stroke-width="0.5"/>

  <path d="M18 38 Q32 32 46 38 L44 54 Q32 58 20 54 Z" fill="url(#cab-plate)" stroke="#3f3f46" stroke-width="0.8"/>
  <path d="M18 38 Q32 32 46 38" fill="none" stroke="url(#cab-edge)" stroke-width="1"/>
  <path d="M32 40 L34 46 L32 52 L30 46 Z" fill="none" stroke="url(#cab-gold)" stroke-width="1.1" stroke-linejoin="round"/>
  <circle cx="32" cy="44" r="1.2" fill="#fbbf24" opacity="0.85"/>

  <path d="M32 8 L44 18 L46 30 L40 36 L24 36 L18 30 L20 18 Z" fill="url(#cab-plate)" stroke="#52525b" stroke-width="0.9"/>
  <path d="M24 18 Q32 12 40 18" fill="none" stroke="url(#cab-edge)" stroke-width="1.1"/>

  <path d="M20 18 L10 4 L18 16 L22 22 Z" fill="#18181b" stroke="#71717a" stroke-width="0.65"/>
  <path d="M44 18 L54 4 L46 16 L42 22 Z" fill="#18181b" stroke="#71717a" stroke-width="0.65"/>
  <path d="M28 8 L32 2 L36 8" fill="url(#cab-gold)" stroke="#78350f" stroke-width="0.45"/>

  <rect x="22" y="24" width="20" height="3.5" rx="1" fill="#030712"/>
  <rect x="29" y="24" width="6" height="12" rx="1" fill="#030712"/>
  <rect x="22.5" y="24.5" width="19" height="2" rx="0.5" fill="#f97316" opacity="0.75"/>
  <rect x="29.5" y="25" width="5" height="10" rx="0.5" fill="#fb923c" opacity="0.55"/>
  <ellipse cx="32" cy="27" rx="8" ry="4" fill="url(#cab-ember)" opacity="0.35" filter="url(#cab-soft)"/>

  <circle cx="26" cy="26.5" r="1.1" fill="#fef3c7"/>
  <circle cx="38" cy="26.5" r="1.1" fill="#fef3c7"/>
  <circle cx="26.2" cy="26.2" r="0.45" fill="#fff"/>
  <circle cx="38.2" cy="26.2" r="0.45" fill="#fff"/>

  <path d="M22 36 Q32 42 42 36 Q39 40 32 41 Q25 40 22 36 Z" fill="#27272a" stroke="#52525b" stroke-width="0.65"/>

  <path d="M26 12 L32 16 L28 20" fill="none" stroke="#e4e4e7" stroke-width="0.7" opacity="0.3" stroke-linecap="round"/>

  <path d="M48 52 L54 46" stroke="#52525b" stroke-width="2.2" stroke-linecap="round"/>
  <path d="M54 46 L56 44" stroke="#a8a29e" stroke-width="1.4" stroke-linecap="round"/>
  <path d="M48 52 L46 54" stroke="#71717a" stroke-width="1.8" stroke-linecap="round"/>
</svg>
