<?xml version="1.0" encoding="UTF-8"?>
<svg xmlns="http://www.w3.org/2000/svg" viewBox="0 0 64 64" role="img" aria-label="Dragon">
  <defs>
    <linearGradient id="bg" x1="0" y1="0" x2="1" y2="1">
      <stop offset="0%" stop-color="#059669"/>
      <stop offset="100%" stop-color="#064e3b"/>
    </linearGradient>
  </defs>
  <circle cx="32" cy="32" r="30" fill="url(#bg)"/>
  <path d="M32 12 L38 22 L32 20 L26 22 Z" fill="#10b981"/>
  <path d="M18 24 L24 32 L20 34 Z" fill="#047857"/>
  <path d="M46 24 L40 32 L44 34 Z" fill="#047857"/>
  <path d="M20 32 Q32 24 44 32 Q48 44 32 50 Q16 44 20 32 Z" fill="#34d399"/>
  <path d="M24 36 Q32 32 40 36" fill="none" stroke="#065f46" stroke-width="2"/>
  <circle cx="27" cy="36" r="2.5" fill="#022c22"/>
  <circle cx="37" cy="36" r="2.5" fill="#022c22"/>
  <circle cx="27" cy="35.5" r="1" fill="#6ee7b7"/>
  <circle cx="37" cy="35.5" r="1" fill="#6ee7b7"/>
  <path d="M28 42 Q32 45 36 42" fill="none" stroke="#064e3b" stroke-width="1.5" stroke-linecap="round"/>
</svg>
