<?xml version="1.0" encoding="UTF-8"?>
<svg xmlns="http://www.w3.org/2000/svg" viewBox="0 0 64 64" role="img" aria-label="Fenix">
  <defs>
    <linearGradient id="bg" x1="0" y1="0" x2="1" y2="1">
      <stop offset="0%" stop-color="#9a3412"/>
      <stop offset="100%" stop-color="#431407"/>
    </linearGradient>
    <linearGradient id="flame" x1="0.5" y1="1" x2="0.5" y2="0">
      <stop offset="0%" stop-color="#dc2626"/>
      <stop offset="50%" stop-color="#f97316"/>
      <stop offset="100%" stop-color="#fde047"/>
    </linearGradient>
  </defs>
  <circle cx="32" cy="32" r="30" fill="url(#bg)"/>
  <path d="M32 48 C20 40 18 30 26 22 C24 28 28 30 30 26 C28 18 34 20 36 26 C42 22 40 34 32 48 Z" fill="url(#flame)"/>
  <path d="M32 44 C28 38 30 32 32 28 C34 32 36 38 32 44 Z" fill="#fef08a"/>
  <path d="M20 36 Q14 28 18 22 Q22 26 24 32" fill="#fb923c" opacity=".7"/>
  <path d="M44 36 Q50 28 46 22 Q42 26 40 32" fill="#fb923c" opacity=".7"/>
  <path d="M32 20 L34 14 L32 16 L30 14 Z" fill="#fde047"/>
</svg>
