<?xml version="1.0" encoding="UTF-8"?>
<svg xmlns="http://www.w3.org/2000/svg" viewBox="0 0 64 64" role="img" aria-label="Lobo">
  <defs>
    <linearGradient id="bg" x1="0" y1="0" x2="1" y2="1">
      <stop offset="0%" stop-color="#475569"/>
      <stop offset="100%" stop-color="#1e293b"/>
    </linearGradient>
  </defs>
  <circle cx="32" cy="32" r="30" fill="url(#bg)"/>
  <path d="M14 28 L20 18 L24 30 Z" fill="#64748b"/>
  <path d="M50 28 L44 18 L40 30 Z" fill="#64748b"/>
  <path d="M18 36 Q32 22 46 36 Q48 48 32 52 Q16 48 18 36 Z" fill="#94a3b8"/>
  <path d="M22 38 Q32 30 42 38 Q40 46 32 48 Q24 46 22 38 Z" fill="#cbd5e1"/>
  <circle cx="26" cy="36" r="2.5" fill="#0f172a"/>
  <circle cx="38" cy="36" r="2.5" fill="#0f172a"/>
  <path d="M30 42 L32 45 L34 42" fill="none" stroke="#334155" stroke-width="1.5" stroke-linecap="round"/>
  <path d="M28 40 Q32 42 36 40" fill="none" stroke="#475569" stroke-width="1"/>
</svg>
